<?xml version="1.0" encoding="utf-8"?>
<!-- Generator: Adobe Illustrator 27.3.1, SVG Export Plug-In . SVG Version: 6.00 Build 0)  -->
<svg version="1.1" id="Layer_1" xmlns="http://www.w3.org/2000/svg" xmlns:xlink="http://www.w3.org/1999/xlink" x="0px" y="0px"
	 viewBox="0 0 864 864" style="enable-background:new 0 0 864 864;" xml:space="preserve">
<style type="text/css">
	.st0{fill:#333333;}
	.st1{fill:#95C467;}
	.st2{fill:#731dd8;}
	.st3{fill:#dbbc65;}
</style>
<path class="st0" d="M665.37,447.39c-3.19-31.61-14.86-61.33-33.77-86.04c4.1-7.8,4.19-17.52,0.25-25.4
	c-3.97-7.91-11.86-13.67-20.62-15.05l-0.97-0.14c-0.85-0.11-1.65-0.23-2.14-0.43c-1.43-0.6-2.12-2.46-3.24-6.71
	c-1.01-3.87-2.26-8.69-6.16-11.8c-2.43-1.94-5.35-2.87-8.93-2.87c-2.43,0-4.79,0.42-7.1,0.83c-2.09,0.37-4.06,0.71-5.81,0.71
	c-1.14,0-2.07-0.15-2.85-0.45c-2.54-1.01-4.19-3.93-6.12-7.35c-1.9-3.36-3.87-6.84-7.21-9.45c-3.25-2.54-7.48-3.87-12.27-3.87
	c-3.32,0-6.81,0.62-10.4,1.88c-3.11,1.08-6.47,1.7-9.21,1.7c-2.29,0-4.02-0.46-4.61-1.22l-1.28-1.65c-3.09-4.02-6.28-8.18-11-11.11
	c-5.78-3.61-12.62-5.52-19.76-5.52c-5.55,0-11.01,1.2-15.81,3.47c-0.92,0.43-1.81,0.91-2.74,1.39c-1.84,0.97-3.59,1.89-5.27,2.27
	c-0.74,0.17-1.52,0.25-2.37,0.25c-2.34,0-4.9-0.62-7.67-1.3c-1.83-0.44-3.67-0.88-5.5-1.18c-0.59-0.09-1.2-0.15-1.86-0.2
	c-6.79-6.51-17.77-7.5-23.79-7.5c-5.56,0-11.36,0.83-15.95,2.26c-11,3.44-20.75,11.04-26.9,20.94c-2.8-0.48-5.65-0.72-8.49-0.72
	c-9.3,0-18.21,2.52-25.78,7.29c-8.47,5.33-15.22,13.58-19.07,23.26c-38.73,22.1-60.03,48.45-71.51,62.65l-2.21,2.72
	c-20.18,24.66-64.13,92.79-36.55,192.66c3.14,11.31,17.25,32.7,48.31,32.7c40.88,0,310-72.44,345.25-84.16
	C652.6,507.45,670.01,493.31,665.37,447.39z"/>
<path class="st1" d="M397.44,307.08c0.35-2.73,0.68-5.31,1.86-6.84c1.29-1.68,3.66-2.39,7.89-2.39c1.53,0,3.14,0.09,4.82,0.18
	c1.65,0.08,3.36,0.17,5.06,0.17c5.08,0,11.42-0.72,15.27-6.42c1.32-1.97,1.98-4.12,2.54-5.96c0.26-0.85,0.51-1.69,0.86-2.49
	c2.09-4.69,7.87-6.35,12.56-6.35c1.05,0,2.09,0.08,3.09,0.24c1.58,0.26,3.17,0.65,4.84,1.05c3.12,0.76,6.35,1.54,9.77,1.54
	c1.52,0,2.94-0.16,4.35-0.46c2.84-0.65,5.21-1.89,7.73-3.23c0.71-0.37,1.43-0.75,2.15-1.09c3.62-1.72,7.75-2.63,11.96-2.63
	c5.34,0,10.67,1.48,14.99,4.18c3.34,2.06,5.91,5.41,8.62,8.96l1.31,1.69c2.44,3.14,6.37,4.72,11.66,4.72
	c5.23,0,10.29-1.55,12.22-2.22c1.48-0.52,4.45-1.39,7.55-1.39c2.72,0,4.95,0.67,6.62,1.98c1.94,1.52,3.4,4.07,4.95,6.82
	c2.4,4.24,5.13,9.07,10.62,11.24c1.84,0.74,3.86,1.09,6.17,1.09c2.58,0,5.13-0.45,7.37-0.85c2.01-0.36,3.92-0.69,5.51-0.69
	c1.49,0,2.55,0.29,3.34,0.92c1.55,1.25,2.29,4.04,3.08,7.04c1.2,4.61,2.68,10.34,8.47,12.74c1.58,0.66,3.14,0.87,4.37,1.04
	l0.84,0.11c5.92,0.93,11.26,4.83,13.93,10.19c2.06,4.09,2.49,8.92,1.29,13.37c-20.4-23.5-47.71-41.71-79.15-52.76
	c-15.47-5.43-31.65-8.19-48.08-8.19c-2.25,0-4.5,0.14-6.76,0.24l1-5.79c0.2-1.19-0.07-2.39-0.77-3.36
	c-0.69-0.98-1.73-1.64-2.91-1.83l-0.78-0.07c-2.18,0-4.04,1.57-4.41,3.73l-1.11,6.5c-0.09,0.51-0.05,1.02,0.03,1.52
	c-8.86,0.94-17.7,2.58-26.46,5.08v-10.89c0-2.48-2.01-4.5-4.49-4.5c-2.49,0-4.5,2.03-4.5,4.5v11.39c0,0.78,0.32,1.48,0.78,2.09
	c-10.75,3.7-21.21,8.56-31.17,14.45l-2-6.5c-0.58-1.9-2.31-3.17-4.29-3.17c-0.45,0-0.89,0.06-1.34,0.19
	c-1.15,0.36-2.09,1.14-2.65,2.21c-0.57,1.06-0.68,2.29-0.32,3.43l2.16,7.04c0.18,0.59,0.48,1.11,0.85,1.56
	c-7.47,4.95-14.67,10.51-21.47,16.61l-2.06-3.76c-0.79-1.44-2.31-2.34-3.95-2.34c-0.75,0-1.49,0.19-2.16,0.55
	c-2.17,1.19-2.98,3.94-1.79,6.11l3.17,5.78c-8.21,8.1-15.83,17.12-22.72,26.86l-3.98-6.77c-0.8-1.38-2.3-2.23-3.88-2.23
	c-0.8,0-1.58,0.22-2.27,0.62c-1.04,0.61-1.78,1.58-2.08,2.75c-0.31,1.17-0.14,2.38,0.48,3.41l5.42,9.21
	c0.24,0.41,0.53,0.77,0.89,1.08c-5.6,8.75-10.58,17.94-14.83,27.34c-0.22,0.48-0.42,0.95-0.61,1.43l-7.96-6.1
	c-0.79-0.61-1.74-0.93-2.74-0.93c-1.41,0-2.72,0.65-3.57,1.77c-1.52,1.97-1.14,4.8,0.83,6.3l8.6,6.6c0.44,0.34,0.94,0.59,1.46,0.75
	c-5.48,14.65-9.02,29.98-11.76,43.46c-4.84-2.56-9.96-4.52-15.25-5.84c-0.36-0.1-0.74-0.15-1.11-0.15c-2.07,0-3.87,1.4-4.37,3.41
	c-0.29,1.17-0.11,2.38,0.51,3.42c0.61,1.03,1.6,1.75,2.76,2.05c5.36,1.35,10.51,3.43,15.29,6.18c0.11,0.07,0.23,0.14,0.34,0.18
	c-0.6,3.15-1.2,6.28-1.79,9.41c-2.05,10.92-3.94,20.8-6.18,30.42l-21.15-2.69l-0.53-0.03c-2.26,0-4.2,1.7-4.48,3.94
	c-0.31,2.46,1.44,4.72,3.89,5.03l20.09,2.56c-0.55,2.17-1.14,4.35-1.77,6.47c-1.57,5.29-5.08,12.82-9.48,20.38
	c-0.41-0.11-0.83-0.18-1.26-0.18c-0.34,0-0.68,0.05-1.03,0.12l-21.7,5.33c-1.17,0.28-2.15,1.01-2.77,2.04
	c-0.63,1.03-0.81,2.24-0.52,3.41c0.49,2.01,2.29,3.43,4.36,3.43c0.36,0,0.72-0.05,1.09-0.14l15.29-3.76
	c-9.65,13.79-19.47,22.26-27.3,23.46c-0.6,0.09-1.19,0.14-1.78,0.14c-0.44,0-0.88-0.02-1.34-0.08c-3.68-9.96-5.34-21.88-1.97-24.42
	l0.88-0.66c7.32-5.5,16.44-12.36,16.76-23.04c0.18-5.99-2.5-10.87-5.09-15.56c-1.92-3.51-3.75-6.8-4.03-10.1
	c-0.41-4.64,3.01-9.68,7.48-11c0.96-0.29,1.97-0.46,3.04-0.65c2.11-0.36,4.49-0.77,6.82-1.98c7.58-3.92,10.27-13.42,7.37-26.1
	c-1.71-7.5-2.94-14.52,0.65-18.11c1.72-1.71,4.6-2.64,7.64-3.61c4.29-1.38,9.61-3.09,12.73-7.89c4.09-6.28,1.96-13.53,0.16-19.65
	c-0.24-0.84-0.49-1.66-0.7-2.48c-0.62-2.32-0.84-4.93-0.63-7.79c0.48-5.57,2.9-9.61,6.46-10.79c1.08-0.36,2.41-0.54,3.83-0.74
	c3.18-0.44,7.14-1,10.19-4c5.17-5.08,3.44-11.71,2.04-17.06c-0.66-2.51-1.34-5.12-1.22-7.19c0.37-6.45,9.21-10.13,17.27-10.82
	c2.35-0.19,5.29-0.44,7.9-2.29c4.2-2.95,4.84-7.91,5.31-11.53c0.09-0.7,0.18-1.39,0.29-2.06c1.15-6.7,6.84-12.5,13.51-13.76
	c0.94-0.18,1.91-0.29,2.97-0.42c3.49-0.42,7.82-0.94,11.19-4C396.28,316.04,396.92,311.09,397.44,307.08z"/>
<path class="st2" d="M413.9,271.48c3.87-1.21,8.52-1.88,13.11-1.88c3.4,0,6.62,0.36,9.45,1.04c-4.1,2.03-7.2,5.13-8.94,9.02
	c-0.37,0.84-0.68,1.71-0.96,2.6l-0.53-4.75c-0.26-2.32-2.06-3.93-4.57-4c-10.12,0.2-20,5.36-26.14,13.57
	c-0.62-0.26-1.25-0.51-1.87-0.76C398.49,279.29,405.68,274.05,413.9,271.48z M418.28,289.16c-0.42,0.02-0.85,0.02-1.3,0.02
	c-1.37,0-2.87-0.06-4.54-0.15c-1.61-0.08-3.26-0.17-4.91-0.17c-0.62,0-1.21,0.02-1.79,0.03c3.34-2.97,7.49-5.06,11.84-5.93
	L418.28,289.16z M305.18,396.36c-0.03-0.52-0.17-1.03-0.4-1.53c-2.37-5.18-2.85-11.17-1.41-16.72l12.55,6.88
	C310.93,386.78,307.19,390.75,305.18,396.36z M306.31,429.19c-1.38,2.12-4.43,3.1-7.95,4.22c-0.59,0.19-1.17,0.38-1.75,0.58
	l-11-12.97c3.5-2.03,7.57-3.12,11.68-3.12c2.05,0,4.05,0.27,5.94,0.8c0.41,0.12,0.82,0.18,1.23,0.18c0.48,0,0.95-0.08,1.39-0.23
	C307.06,422.81,307.95,426.65,306.31,429.19z M303.55,406.58c0.02,1,0.08,1.99,0.19,2.99c-2.08-0.44-4.22-0.67-6.39-0.67
	c-7.87,0-15.63,2.92-21.3,7.99c-1.83,1.64-2.03,4.39-0.43,6.27l12.71,15c-0.36,0.29-0.71,0.6-1.04,0.92l-16.34-10.29
	c-0.71-0.45-1.55-0.69-2.4-0.69c-0.45,0-0.89,0.07-1.31,0.2c-1.26,0.38-2.27,1.29-2.81,2.49c-4.36,9.89-4.39,21.72-0.11,31.65
	c0.02,0.05,0.05,0.1,0.07,0.15c-0.91,0.23-1.82,0.48-2.73,0.76c-0.05-0.11-0.09-0.22-0.14-0.33c-4.81-10.16-6.08-21.29-3.57-31.33
	c2.64-10.51,9.58-19.56,18.56-24.22c4.43-2.3,9.46-3.51,14.57-3.51C295.48,403.95,299.77,404.86,303.55,406.58z M272.57,458.85
	c-2.59-6-3.15-12.96-1.6-19.41l11.84,7.45c-1.18,4.58-0.66,9.64,0.33,14.59c-2.13-0.28-4.28-0.43-6.44-0.43
	c-1.27,0-2.52,0.05-3.79,0.15C273,460.43,272.9,459.62,272.57,458.85z M276.64,469.99c2.78,0,5.53,0.29,8.19,0.87
	c0.29,3.77,0.02,9.13-3.51,10.96c-1.09,0.55-2.6,0.83-4.22,1.1c-1.38,0.24-2.77,0.49-4.1,0.89c-0.32,0.09-0.62,0.19-0.93,0.32
	l-2.61-6.1c-0.49-1.13-1.44-2.03-2.59-2.44c-0.51-0.18-1.02-0.27-1.55-0.27c-0.69,0-1.38,0.16-2,0.48
	c-11.69,5.85-20.12,18.03-21.48,31.03c-0.14,1.37,0.37,2.76,1.37,3.72c0.84,0.79,1.95,1.25,3.11,1.25l0.67-0.06
	c4.19-0.63,8.44-0.95,12.65-0.95l1.17,0.01c0.33,0.86,0.7,1.71,1.09,2.52l-17.53,2.29c-1.19,0.15-2.29,0.78-3.02,1.74
	c-0.72,0.97-1.04,2.21-0.85,3.38c1.43,9.48,6.72,18.44,14.31,24.4l-0.62,0.48c-0.79,0.59-1.51,1.31-2.16,2.2
	c-7.74-3.89-11.99-11.24-14.2-16.86c-4.7-11.93-4.61-26.82,0.21-37.06C244.77,479.59,260.29,469.99,276.64,469.99z M264.5,489.27
	c-3.21,3.5-5.14,8-5.36,12.53c-2.42,0.02-4.82,0.12-7.15,0.31c1.96-6.22,6.01-11.9,11.26-15.75L264.5,489.27z M250.45,523.89
	l13.08-1.71c0.92-0.11,1.75-0.5,2.43-1.11c1.35,2.66,2.34,5.23,2.26,7.75c-0.1,3.38-2.03,6.67-6.19,10.49
	C256.62,535.69,252.48,530.16,250.45,523.89z M351.55,337.34c-0.05-4.35,0.76-8.73,2.39-12.88c1.82,0.68,3.68,1.49,5.56,2.46
	c-1.83,2.87-3.08,6.06-3.63,9.29c-0.12,0.78-0.24,1.6-0.34,2.41c-0.03,0.26-0.07,0.52-0.11,0.79
	C354.22,338.69,352.94,338.01,351.55,337.34z M370.06,308.75c2.46-0.88,5.1-1.35,7.78-1.35c3.42,0,6.75,0.76,9.64,2.18
	c0.12,0.07,0.27,0.12,0.41,0.18c-0.32,1.36-0.76,2.42-1.53,3.1c-1.26,1.14-3.67,1.44-6.22,1.74c-1.21,0.14-2.41,0.28-3.58,0.51
	c-0.02,0-0.05,0.01-0.08,0.01L370.06,308.75z M338.95,317.98c3.06-8.35,8.7-15.44,15.9-19.97c6.1-3.85,13.3-5.89,20.83-5.89
	c5.55,0,11.04,1.13,16.01,3.29c-1.14,1.7-1.81,3.52-2.25,5.2c-3.64-1.47-7.63-2.24-11.64-2.24c-6.41,0-12.74,1.97-17.86,5.55
	c-1.1,0.77-1.79,1.97-1.9,3.29c-0.11,1.34,0.36,2.64,1.31,3.58l8.1,8.07c-0.54,0.36-1.09,0.76-1.62,1.18
	c-3.23-1.79-6.61-3.29-10.06-4.47c-0.58-0.19-1.75-0.6-3.16-0.6c-1.1,0-2.14,0.25-3.07,0.74c-2.11,1.1-2.98,3.07-3.35,3.9
	c-1.98,4.48-3.18,9.44-3.52,14.48c-2.03-0.54-4.1-0.95-6.16-1.23C336.36,327.98,337.16,322.95,338.95,317.98z M304.24,349.54
	c6.92-5.3,15.86-8.22,25.18-8.22c6.21,0,12.18,1.29,17.5,3.75c-4.14,0.69-8.07,1.99-11.36,3.78c-1.77-0.31-3.58-0.46-5.39-0.46
	c-7.06,0-13.97,2.34-19.44,6.59c-3.33,2.57-4.52,6.2-3.03,9.25c0.75,1.55,1.96,2.42,2.6,2.9l16.04,11.6
	c0.37,0.28,0.79,0.49,1.27,0.63c0.09,1.1-0.05,1.79-0.31,2.29c-0.38-0.65-0.95-1.19-1.64-1.57l-22.52-12.36
	c-0.66-0.36-1.4-0.55-2.16-0.55c-0.46,0-0.93,0.07-1.37,0.22c-1.18,0.37-2.15,1.22-2.68,2.32c-3.8,7.87-4.36,17.19-1.61,25.51
	c-1.39-0.15-2.78-0.22-4.18-0.22c-0.34,0-0.69,0-1.03,0.01c-0.03-0.2-0.08-0.4-0.14-0.59C285.03,378.52,291.04,359.65,304.24,349.54
	z M325.03,366.68l-7.56-5.48c2.73-1.82,5.86-3.03,9.15-3.54c-0.96,1.95-1.51,4.04-1.63,6.25
	C324.93,364.85,324.95,365.77,325.03,366.68z"/>
<path class="st3" d="M269.02,592.93c-24.15,0-34.94-15.9-37.27-24.31c-4.43-16.04-6.92-31.22-7.91-45.47
	c0.71,4.11,1.81,8.15,3.32,11.98c4.12,10.45,10.75,18.25,19.22,22.67c-0.09,2.14,0.02,4.47,0.33,6.99c-1.31,0.05-2.55,0.47-3.61,1.2
	c-1.5,0.99-2.55,2.56-2.92,4.4c-0.35,1.83,0.02,3.68,1.06,5.22c5.88,8.73,13.12,13.16,21.5,13.16c1.19,0,2.39-0.09,3.67-0.29
	c24.77-3.81,47.93-46.56,52.56-62.16c4.41-14.9,7.46-31.14,10.41-46.85l0.03-0.18c4.47-23.73,9.1-48.27,18.5-69.13
	c29.12-64.6,87.94-106.34,149.84-106.34c15.17,0,30.1,2.55,44.38,7.57c63.62,22.36,105.43,73.63,111.85,137.16
	c3.41,33.67-2.38,47.18-43.34,60.8C575.65,521,309.06,592.93,269.02,592.93z M349.84,540.76c-4.74,0-9.78,3.36-9.78,9.6v0.54
	c0,2.85,1.11,5.4,3.13,7.17c1.8,1.56,4.16,2.42,6.66,2.42c2.46,0,4.8-0.84,6.57-2.35c2.07-1.78,3.21-4.34,3.21-7.23v-0.54
	C359.63,544.13,354.58,540.76,349.84,540.76z M495.21,494.25c-6.23,0-9.6,5.04-9.6,9.79c0,4.74,3.36,9.78,9.6,9.78
	s9.6-5.04,9.6-9.78c0-2.47-0.84-4.8-2.37-6.58C500.67,495.39,498.1,494.25,495.21,494.25z M393.62,478.2c-6.23,0-9.6,5.04-9.6,9.79
	c0,4.74,3.36,9.78,9.6,9.78c6.23,0,9.6-5.04,9.6-9.79C403.21,483.23,399.85,478.2,393.62,478.2z M568.25,459.68
	c-2.9,0-5.47,1.14-7.24,3.21c-1.52,1.76-2.36,4.09-2.36,6.56c0,4.75,3.36,9.79,9.6,9.79c6.23,0,9.59-5.04,9.59-9.79
	C577.84,464.72,574.48,459.68,568.25,459.68z M466.9,444.06c-6.23,0-9.6,5.04-9.6,9.79c0,4.74,3.36,9.78,9.6,9.78
	c6.23,0,9.6-5.04,9.6-9.79c0-2.45-0.84-4.79-2.36-6.57C472.36,445.2,469.79,444.06,466.9,444.06z M412.17,409.17
	c-6.23,0-9.6,5.04-9.6,9.79c0,4.74,3.36,9.78,9.6,9.78c6.23,0,9.6-5.04,9.6-9.79C421.76,414.21,418.4,409.17,412.17,409.17z
	 M602.93,398.59c-6.23,0-9.6,5.04-9.6,9.79c0,4.74,3.36,9.78,9.6,9.78c6.23,0,9.6-5.04,9.6-9.79
	C612.53,403.62,609.17,398.59,602.93,398.59z M512.98,394.56c-6.23,0-9.6,5.04-9.6,9.79c0,4.74,3.36,9.78,9.6,9.78
	c6.23,0,9.59-5.04,9.59-9.79C522.56,399.59,519.2,394.56,512.98,394.56z M466.9,344.03c-4.74,0-9.78,3.36-9.78,9.6v0.54
	c0,6.23,5.04,9.6,9.79,9.6c2.45,0,4.79-0.84,6.57-2.36c2.07-1.78,3.21-4.35,3.21-7.23v-0.54
	C476.69,347.4,471.65,344.03,466.9,344.03z M541.69,337.89c-6.23,0-9.6,5.04-9.6,9.79c0,4.74,3.36,9.78,9.6,9.78
	c6.23,0,9.6-5.04,9.6-9.79C551.29,342.92,547.92,337.89,541.69,337.89z M224.57,497.86c-0.14,0.56-0.97,0.43-0.94-0.14
	c3.04-56.04,28.66-94.57,42.47-111.46l2.24-2.75c2.32-2.87,5.12-6.33,8.45-10.21c0.32-0.37,0.91-0.08,0.83,0.4
	c-1.23,7-1.07,14.09,0.51,20.82c-2.45,0.74-4.76,1.68-6.9,2.79c-11.85,6.14-20.97,17.96-24.39,31.6
	c-2.96,11.82-1.79,24.75,3.27,36.68c-9.95,5.49-17.86,13.73-22.44,23.43C226.38,491.76,225.34,494.74,224.57,497.86z"/>
</svg>
